<?xml version="1.0" encoding="UTF-8"?>
<svg width="300px" height="171px" viewBox="0 0 300 171" version="1.1" xmlns="http://www.w3.org/2000/svg" xmlns:xlink="http://www.w3.org/1999/xlink">
    <title>ADP_Pride_logo</title>
    <g id="Page-1" stroke="none" stroke-width="1" fill="none" fill-rule="evenodd">
        <g id="ADP_Pride_logo" fill-rule="nonzero">
            <path d="M272.000006,127.69 C272.004044,124.278567 269.951625,121.200983 266.800643,119.893615 C263.649662,118.586247 260.021345,119.306846 257.609096,121.719096 C255.196846,124.131345 254.476247,127.759662 255.783615,130.910643 C257.090983,134.061625 260.168567,136.114044 263.58,136.110006 C268.227953,136.10449 271.99449,132.337953 272.000006,127.69 M270.54,127.69 C270.54,131.555993 267.405993,134.69 263.54,134.69 C259.674007,134.69 256.54,131.555993 256.54,127.69 C256.54,123.824007 259.674007,120.69 263.54,120.69 C267.405993,120.69 270.54,123.824007 270.54,127.69 M266.1,123.52 C265.538938,122.941643 264.754536,122.635179 263.95,122.68 L260.6,122.68 L260.6,132.68 L262.06,132.68 L262.06,128.93 L263.66,128.93 L265.8,132.68 L267.52,132.68 L265.1,128.74 C265.644567,128.546033 266.106679,128.17211 266.41,127.68 C266.739671,127.113377 266.902592,126.46516 266.88,125.81 C266.928092,124.977251 266.648093,124.158791 266.1,123.53 M263.85,124.03 C264.281242,124.00111 264.702892,124.166103 265,124.48 C265.533632,125.286376 265.533632,126.333624 265,127.14 C264.704734,127.457577 264.282832,127.626338 263.85,127.6 L262.06,127.6 L262.06,124 L263.85,124.03 Z M246.45,29.19 L229.45,29.19 L229.45,46.19 L246.45,46.19 C250.37932,46.3354057 253.489676,49.5629907 253.489676,53.495 C253.489676,57.4270093 250.37932,60.6545943 246.45,60.8 L229.45,60.8 L229.45,77.8 L246.45,77.8 C259.881565,77.8 270.77,66.9115651 270.77,53.48 C270.77,40.0484349 259.881565,29.16 246.45,29.16 M149.45,119.16 C169.180081,119.172505 187.153217,107.821051 195.62,90 L217.31,90 L217.31,119.19 L229.46,119.19 L229.46,90 L246.46,90 C259.635207,90.2181598 271.904041,83.314172 278.555427,71.9390793 C285.206813,60.5639865 285.206813,46.4860135 278.555427,35.1109207 C271.904041,23.735828 259.635207,16.8318402 246.46,17.05 L217.31,17.05 L217.31,60.79 L200,60.79 C196.41008,35.6516739 174.873359,16.9839579 149.48,16.9999897 L89.6,16.9999897 L30.06,119.16 L44.27,119.16 L61.27,90 L122.48,90 L122.48,119.19 L149.45,119.16 Z M300,53.49 C300,67.6834672 294.360983,81.2954607 284.323748,91.3308198 C274.286514,101.366179 260.673467,107.002652 246.48,106.999995 L246.48,136.19 L200.3,136.19 L200.3,113.4 C187.387035,127.896457 168.893701,136.182432 149.48,136.17 L105.48,136.17 L105.48,106.999995 L71.05,106.999995 L54,136.17 L0,136.17 L79.41,-4.88293301e-06 L149.48,-4.88293301e-06 C168.89683,-0.00735127026 187.390664,8.28612554 200.3,22.79 L200.3,-4.88293301e-06 L246.48,-4.88293301e-06 C276.022001,0.0110226083 299.972413,23.9480098 300,53.49 M105.44,29.18 L105.44,60.79 L78.31,60.79 L68.39,77.79 L122.48,77.79 L122.48,29.18 L105.44,29.18 Z M188.38,68.08 C188.368965,89.5593043 170.959304,106.968965 149.48,106.98 L134.63,106.98 L134.63,90 L149.48,90 C161.389959,89.7454562 170.912052,80.017679 170.912052,68.105 C170.912052,56.192321 161.389959,46.4645438 149.48,46.21 L134.63,46.21 L134.63,29.21 L149.48,29.21 C170.959304,29.2210348 188.368965,46.6306957 188.38,68.11" id="Shape" fill="#D0271D"></path>
            <rect id="Rectangle" fill="#D02827" x="0" y="153.18" width="52.81" height="17.01"></rect>
            <rect id="Rectangle" fill="#F15C22" x="52.81" y="153.18" width="52.81" height="17.01"></rect>
            <rect id="Rectangle" fill="#F3AA11" x="105.61" y="153.18" width="47.77" height="17.01"></rect>
            <rect id="Rectangle" fill="#008879" x="153.38" y="153.18" width="47.77" height="17.01"></rect>
            <rect id="Rectangle" fill="#2C3783" x="201.15" y="153.18" width="50.97" height="17.01"></rect>
            <rect id="Rectangle" fill="#7568A7" x="252.12" y="153.18" width="47.42" height="17.01"></rect>
        </g>
    </g>
</svg>